<svg width="56" height="56" viewBox="0 0 56 56" fill="none" xmlns="http://www.w3.org/2000/svg">
<path d="M27.9999 26.2181C30.3635 26.2181 32.6303 27.1571 34.3016 28.8284C35.9729 30.4997 36.9119 32.7665 36.9119 35.1302V45.8246H19.0878V35.1302C19.0878 32.7665 20.0268 30.4997 21.6981 28.8284C23.3694 27.1571 25.6362 26.2181 27.9999 26.2181ZM16.0363 31.576C15.7527 32.5328 15.5851 33.5202 15.5373 34.517L15.523 35.1302V45.8246H10.1758V37.8038C10.1754 36.2666 10.7426 34.7834 11.7686 33.6387C12.7946 32.4939 14.207 31.7683 15.7351 31.601L16.0381 31.576H16.0363ZM39.9634 31.576C41.5496 31.6727 43.0391 32.3709 44.1281 33.5282C45.2172 34.6855 45.8237 36.2146 45.8239 37.8038V45.8246H40.4767V35.1302C40.4767 33.8949 40.2985 32.7025 39.9634 31.576ZM16.4142 20.8709C17.596 20.8709 18.7294 21.3404 19.5651 22.176C20.4008 23.0117 20.8702 24.1451 20.8702 25.3269C20.8702 26.5087 20.4008 27.6421 19.5651 28.4778C18.7294 29.3135 17.596 29.7829 16.4142 29.7829C15.2324 29.7829 14.099 29.3135 13.2633 28.4778C12.4277 27.6421 11.9582 26.5087 11.9582 25.3269C11.9582 24.1451 12.4277 23.0117 13.2633 22.176C14.099 21.3404 15.2324 20.8709 16.4142 20.8709V20.8709ZM39.5855 20.8709C40.7673 20.8709 41.9007 21.3404 42.7364 22.176C43.5721 23.0117 44.0415 24.1451 44.0415 25.3269C44.0415 26.5087 43.5721 27.6421 42.7364 28.4778C41.9007 29.3135 40.7673 29.7829 39.5855 29.7829C38.4037 29.7829 37.2703 29.3135 36.4346 28.4778C35.599 27.6421 35.1295 26.5087 35.1295 25.3269C35.1295 24.1451 35.599 23.0117 36.4346 22.176C37.2703 21.3404 38.4037 20.8709 39.5855 20.8709V20.8709ZM27.9999 10.1765C29.8908 10.1765 31.7042 10.9276 33.0413 12.2647C34.3783 13.6017 35.1295 15.4152 35.1295 17.3061C35.1295 19.197 34.3783 21.0104 33.0413 22.3475C31.7042 23.6846 29.8908 24.4357 27.9999 24.4357C26.109 24.4357 24.2955 23.6846 22.9584 22.3475C21.6214 21.0104 20.8702 19.197 20.8702 17.3061C20.8702 15.4152 21.6214 13.6017 22.9584 12.2647C24.2955 10.9276 26.109 10.1765 27.9999 10.1765V10.1765Z" fill="#6B6B9A"/>
</svg>
