<svg width="56" height="56" viewBox="0 0 56 56" fill="none" xmlns="http://www.w3.org/2000/svg">
<path d="M27.9999 45.8234C18.1556 45.8234 10.1758 37.8436 10.1758 27.9994C10.1758 18.1551 18.1556 10.1753 27.9999 10.1753C37.8441 10.1753 45.8239 18.1551 45.8239 27.9994C45.8239 37.8436 37.8441 45.8234 27.9999 45.8234ZM21.7614 31.5642V35.129H26.2174V38.6938H29.7823V35.129H31.5647C32.7465 35.129 33.8799 34.6595 34.7156 33.8239C35.5512 32.9882 36.0207 31.8548 36.0207 30.673C36.0207 29.4912 35.5512 28.3578 34.7156 27.5221C33.8799 26.6864 32.7465 26.217 31.5647 26.217H24.435C24.1987 26.217 23.972 26.1231 23.8049 25.9559C23.6377 25.7888 23.5438 25.5621 23.5438 25.3258C23.5438 25.0894 23.6377 24.8627 23.8049 24.6956C23.972 24.5284 24.1987 24.4346 24.435 24.4346H34.2383V20.8697H29.7823V17.3049H26.2174V20.8697H24.435C23.2532 20.8697 22.1198 21.3392 21.2842 22.1749C20.4485 23.0105 19.979 24.1439 19.979 25.3258C19.979 26.5076 20.4485 27.641 21.2842 28.4766C22.1198 29.3123 23.2532 29.7818 24.435 29.7818H31.5647C31.801 29.7818 32.0277 29.8757 32.1948 30.0428C32.362 30.2099 32.4559 30.4366 32.4559 30.673C32.4559 30.9093 32.362 31.136 32.1948 31.3032C32.0277 31.4703 31.801 31.5642 31.5647 31.5642H21.7614Z" fill="#6B6B9A"/>
</svg>
