<svg width="56" height="56" viewBox="0 0 56 56" fill="none" xmlns="http://www.w3.org/2000/svg">
<path d="M11.9582 11.9583H44.0415C44.5142 11.9583 44.9676 12.1461 45.3019 12.4804C45.6361 12.8146 45.8239 13.268 45.8239 13.7407V42.2592C45.8239 42.732 45.6361 43.1853 45.3019 43.5196C44.9676 43.8539 44.5142 44.0416 44.0415 44.0416H11.9582C11.4855 44.0416 11.0321 43.8539 10.6978 43.5196C10.3636 43.1853 10.1758 42.732 10.1758 42.2592V13.7407C10.1758 13.268 10.3636 12.8146 10.6978 12.4804C11.0321 12.1461 11.4855 11.9583 11.9582 11.9583V11.9583ZM19.0878 29.7824V36.912H22.6526V29.7824H19.0878ZM26.2174 19.0879V36.912H29.7823V19.0879H26.2174ZM33.3471 24.4352V36.912H36.9119V24.4352H33.3471Z" fill="#6B6B9A"/>
</svg>
