<svg width="146" height="32" viewBox="0 0 146 32" fill="none" xmlns="http://www.w3.org/2000/svg">
<path d="M12.3787 15.4118L12.4059 15.4333H12.4406H15.334C16.8988 15.4333 18.3994 16.0549 19.5059 17.1614C20.5888 18.2443 21.2073 19.7047 21.2331 21.2333H11.9993H11.8992L11.8993 21.3334L11.9007 22.6668L11.9008 22.7667H12.0007H22.6673H22.7673V22.6667V21.3333V21.333C22.7632 19.9559 22.382 18.6074 21.6666 17.4333H25.334C26.5755 17.433 27.7916 17.7846 28.8413 18.4473C29.8739 19.0992 30.704 20.0259 31.2386 21.1229C28.1011 25.232 23.0425 27.9 17.334 27.9C13.6923 27.9 10.608 27.1272 8.10065 25.7738V13.5441C9.663 13.7879 11.1367 14.431 12.3787 15.4118ZM5.33397 12.1C5.33398 12.1 5.33398 12.1 5.33398 12.1C5.63606 12.1 5.92762 12.2109 6.15336 12.4117C6.3784 12.6118 6.52243 12.8873 6.55834 13.1862L6.56732 13.3363V25.3333C6.56732 25.6604 6.43738 25.9741 6.20608 26.2054C5.97479 26.4367 5.66109 26.5667 5.33398 26.5667H2.66732C2.34022 26.5667 2.02651 26.4367 1.79522 26.2054C1.56392 25.9741 1.43398 25.6604 1.43398 25.3333V13.3333C1.43398 13.0062 1.56392 12.6925 1.79522 12.4612C2.02651 12.2299 2.34022 12.1 2.66732 12.1H5.33397Z" fill="#6B6B9A" stroke="white" stroke-width="0.2"/>
<path d="M18.6671 5.2401L18.1951 4.76677C17.8861 4.45497 17.5186 4.20728 17.1136 4.03791C16.7086 3.86853 16.2742 3.78082 15.8352 3.77979C15.3963 3.77877 14.9614 3.86446 14.5557 4.03195C14.1499 4.19943 13.7812 4.44541 13.4708 4.75576C13.1603 5.06612 12.9143 5.43473 12.7467 5.84044C12.5791 6.24616 12.4932 6.68098 12.4941 7.11994C12.495 7.55891 12.5826 7.99338 12.7519 8.3984C12.9212 8.80342 13.1687 9.17102 13.4805 9.4801L18.6671 14.6668L23.8525 9.48277C24.1643 9.17378 24.4119 8.80625 24.5813 8.40127C24.7507 7.9963 24.8384 7.56185 24.8394 7.12289C24.8405 6.68392 24.7548 6.24908 24.5873 5.84332C24.4198 5.43756 24.1738 5.06887 23.8635 4.75843C23.5531 4.44799 23.1845 4.20191 22.7788 4.03431C22.3731 3.86671 21.9382 3.7809 21.4993 3.7818C21.0603 3.78269 20.6259 3.87029 20.2208 4.03955C19.8158 4.2088 19.4482 4.4564 19.1391 4.7681L18.6671 5.2401Z" fill="#1A1A43"/>
<path d="M49.088 25H45.632V6.688H49.088V14.272H56.936V6.688H60.392V25H56.936V17.368H49.088V25ZM66.4389 25.264C65.1269 25.264 64.0629 24.92 63.2469 24.232C62.4309 23.528 62.0229 22.552 62.0229 21.304C62.0229 19.96 62.5349 18.936 63.5589 18.232C64.2949 17.72 65.3429 17.336 66.7029 17.08L70.7109 16.336C70.6789 15.504 70.4629 14.872 70.0629 14.44C69.6629 14.008 69.0629 13.792 68.2629 13.792C67.6389 13.792 67.0869 13.976 66.6069 14.344C66.1429 14.712 65.8549 15.208 65.7429 15.832H62.5269C62.7509 14.344 63.4069 13.208 64.4949 12.424C65.5829 11.64 66.8469 11.248 68.2869 11.248C69.1029 11.248 69.8629 11.368 70.5669 11.608C71.2709 11.832 71.8709 12.168 72.3669 12.616C72.8629 13.048 73.2229 13.552 73.4469 14.128C73.6709 14.704 73.8069 15.28 73.8549 15.856C73.9189 16.432 73.9509 17.144 73.9509 17.992V25H70.7109V23.176C70.3749 23.768 69.9669 24.216 69.4869 24.52C68.7349 25.016 67.7189 25.264 66.4389 25.264ZM67.2309 22.72C67.8709 22.72 68.4469 22.592 68.9589 22.336C69.6309 22 70.0949 21.552 70.3509 20.992C70.6069 20.432 70.7509 19.672 70.7829 18.712L67.5669 19.36C66.7029 19.52 66.0789 19.776 65.6949 20.128C65.4069 20.416 65.2629 20.768 65.2629 21.184C65.2629 21.68 65.4389 22.064 65.7909 22.336C66.1589 22.592 66.6389 22.72 67.2309 22.72ZM75.7706 25V11.536H79.0106V13.144C79.5066 12.456 80.0586 11.968 80.6666 11.68C81.2906 11.392 82.0186 11.248 82.8506 11.248H83.2346V14.368H82.4906C81.4666 14.368 80.6666 14.64 80.0906 15.184C79.7226 15.552 79.4506 16.024 79.2746 16.6C79.0986 17.16 79.0106 17.88 79.0106 18.76V25H75.7706ZM84.1856 25V11.536H87.4256V13.24C87.9376 12.536 88.4896 12.032 89.0816 11.728C89.6896 11.408 90.3616 11.248 91.0976 11.248C91.9936 11.248 92.7536 11.432 93.3776 11.8C94.0016 12.168 94.4176 12.704 94.6256 13.408C95.0576 12.656 95.6016 12.112 96.2576 11.776C96.9136 11.424 97.6896 11.248 98.5856 11.248C100.058 11.248 101.162 11.68 101.898 12.544C102.634 13.408 103.002 14.616 103.002 16.168V25H99.7616V16.576C99.7616 14.8 99.0576 13.912 97.6496 13.912C96.9776 13.912 96.4416 14.128 96.0416 14.56C95.7376 14.896 95.5216 15.328 95.3936 15.856C95.2816 16.384 95.2256 17.056 95.2256 17.872V25H91.9856V16.576C91.9856 15.68 91.8016 15.016 91.4336 14.584C91.0656 14.136 90.5376 13.912 89.8496 13.912C89.1776 13.912 88.6336 14.144 88.2176 14.608C87.9456 14.928 87.7456 15.344 87.6176 15.856C87.4896 16.352 87.4256 17.024 87.4256 17.872V25H84.1856ZM111.241 25.264C109.897 25.264 108.705 24.968 107.665 24.376C106.625 23.784 105.809 22.952 105.217 21.88C104.641 20.808 104.353 19.576 104.353 18.184C104.353 16.84 104.641 15.64 105.217 14.584C105.809 13.528 106.625 12.712 107.665 12.136C108.705 11.544 109.897 11.248 111.241 11.248C112.585 11.248 113.777 11.544 114.817 12.136C115.873 12.728 116.689 13.552 117.265 14.608C117.857 15.648 118.153 16.84 118.153 18.184C118.153 19.576 117.865 20.808 117.289 21.88C116.713 22.952 115.897 23.784 114.841 24.376C113.801 24.968 112.601 25.264 111.241 25.264ZM111.241 22.48C112.297 22.48 113.153 22.08 113.809 21.28C114.465 20.48 114.793 19.448 114.793 18.184C114.793 16.968 114.465 15.976 113.809 15.208C113.153 14.424 112.297 14.032 111.241 14.032C110.553 14.032 109.937 14.208 109.393 14.56C108.849 14.912 108.425 15.408 108.121 16.048C107.817 16.672 107.665 17.384 107.665 18.184C107.665 19.464 107.993 20.504 108.649 21.304C109.321 22.088 110.185 22.48 111.241 22.48ZM119.601 25V11.536H122.841V13.24C123.353 12.52 123.905 12.008 124.497 11.704C125.089 11.4 125.761 11.248 126.513 11.248C128.593 11.248 129.993 12 130.713 13.504C130.953 14.032 131.105 14.568 131.169 15.112C131.233 15.656 131.265 16.368 131.265 17.248V25H128.049V17.2C128.049 15.904 127.825 15.008 127.377 14.512C126.993 14.112 126.425 13.912 125.673 13.912C124.761 13.912 124.081 14.184 123.633 14.728C123.361 15.048 123.161 15.48 123.033 16.024C122.905 16.552 122.841 17.256 122.841 18.136V25H119.601ZM133.389 29.848V27.112H134.853C135.333 27.112 135.693 27.04 135.933 26.896C136.189 26.768 136.405 26.472 136.581 26.008L136.941 25.048L131.973 11.536H135.477L138.621 21.424L141.453 11.536H144.933L139.701 26.584C139.285 27.784 138.773 28.624 138.165 29.104C137.573 29.6 136.725 29.848 135.621 29.848H133.389Z" fill="#1A1A43"/>
</svg>
